<svg xmlns="http://www.w3.org/2000/svg" version="1.1" xmlns:xlink="http://www.w3.org/1999/xlink" xmlns:svgjs="http://svgjs.com/svgjs" width="512" height="512" x="0" y="0" viewBox="0 0 120 120" style="enable-background:new 0 0 512 512" xml:space="preserve" class=""><g><linearGradient id="a" x1="60" x2="60" y1="15" y2="104.954" gradientUnits="userSpaceOnUse"><stop offset="0" stop-color="#77c852"></stop><stop offset="1" stop-color="#00af90"></stop></linearGradient><g fill="url(#a)"><path d="m62 25.075 26.737-9.795C91.8 14.157 95 16.553 95 19.97v47.518c0 2.113-1.27 3.995-3.166 4.69C81.938 75.804 62 83 62 83zM52.693 99.397A23884.5 23884.5 0 0 0 31 91.911v8.039c0 3.445 3.402 5.858 6.654 4.718zM67.312 99.4A29807.836 29807.836 0 0 1 89 91.93v8.018c0 3.446-3.402 5.859-6.654 4.719zM31.263 15.28C28.2 14.157 25 16.553 25 19.97v47.518c0 2.113 1.27 3.995 3.166 4.69C38.099 75.817 47.86 79.949 58 83V25.075z" fill=""></path><path d="M99 20.858v46.63c0 3.686-2.221 7.138-5.79 8.445C82.843 79.732 62 87.177 62 87.177V97s29.854-10.301 44.692-15.363c1.973-.673 3.308-2.593 3.308-4.758V24.01c0-3.405-3.189-5.816-6.292-4.757zM58 87.177c0-.177-14.84-5.013-22.16-7.822h-.001l-.003-.002h-.003c-3.056-1.173-6.075-2.332-9.044-3.42C23.221 74.626 21 71.173 21 67.488V20.857l-4.708-1.605C13.19 18.194 10 20.604 10 24.007v52.847c0 2.164 1.334 4.083 3.307 4.756C28.106 86.656 58 97 58 97z" fill=""></path></g></g></svg>
